<mxfile host="app.diagrams.net" agent="Mozilla/5.0 (Windows NT 10.0; Win64; x64) AppleWebKit/537.36 (KHTML, like Gecko) Chrome/130.0.0.0 Safari/537.36" version="24.8.2">
  <diagram name="Page-1" id="IOok5DVv6RuoG3vR5GY8">
    <mxGraphModel dx="1500" dy="796" grid="1" gridSize="10" guides="1" tooltips="1" connect="1" arrows="1" fold="1" page="1" pageScale="1" pageWidth="827" pageHeight="1169" math="0" shadow="0">
      <root>
        <mxCell id="0" />
        <mxCell id="1" parent="0" />
        <mxCell id="2dMqf0UhAoNqgRJj8EPE-28" style="edgeStyle=orthogonalEdgeStyle;rounded=0;orthogonalLoop=1;jettySize=auto;html=1;exitX=0.75;exitY=0;exitDx=0;exitDy=0;entryX=1;entryY=0.5;entryDx=0;entryDy=0;" edge="1" parent="1" source="2dMqf0UhAoNqgRJj8EPE-1" target="2dMqf0UhAoNqgRJj8EPE-10">
          <mxGeometry relative="1" as="geometry" />
        </mxCell>
        <mxCell id="2dMqf0UhAoNqgRJj8EPE-1" value="CalculatorView" style="swimlane;fontStyle=1;align=center;verticalAlign=top;childLayout=stackLayout;horizontal=1;startSize=26;horizontalStack=0;resizeParent=1;resizeParentMax=0;resizeLast=0;collapsible=1;marginBottom=0;whiteSpace=wrap;html=1;" vertex="1" parent="1">
          <mxGeometry x="925" y="340" width="210" height="86" as="geometry" />
        </mxCell>
        <mxCell id="2dMqf0UhAoNqgRJj8EPE-2" value="+ _presenter: ICalculatorPresenter" style="text;strokeColor=none;fillColor=none;align=left;verticalAlign=top;spacingLeft=4;spacingRight=4;overflow=hidden;rotatable=0;points=[[0,0.5],[1,0.5]];portConstraint=eastwest;whiteSpace=wrap;html=1;" vertex="1" parent="2dMqf0UhAoNqgRJj8EPE-1">
          <mxGeometry y="26" width="210" height="26" as="geometry" />
        </mxCell>
        <mxCell id="2dMqf0UhAoNqgRJj8EPE-3" value="" style="line;strokeWidth=1;fillColor=none;align=left;verticalAlign=middle;spacingTop=-1;spacingLeft=3;spacingRight=3;rotatable=0;labelPosition=right;points=[];portConstraint=eastwest;strokeColor=inherit;" vertex="1" parent="2dMqf0UhAoNqgRJj8EPE-1">
          <mxGeometry y="52" width="210" height="8" as="geometry" />
        </mxCell>
        <mxCell id="2dMqf0UhAoNqgRJj8EPE-4" value="+ method(type): type" style="text;strokeColor=none;fillColor=none;align=left;verticalAlign=top;spacingLeft=4;spacingRight=4;overflow=hidden;rotatable=0;points=[[0,0.5],[1,0.5]];portConstraint=eastwest;whiteSpace=wrap;html=1;" vertex="1" parent="2dMqf0UhAoNqgRJj8EPE-1">
          <mxGeometry y="60" width="210" height="26" as="geometry" />
        </mxCell>
        <mxCell id="2dMqf0UhAoNqgRJj8EPE-26" style="edgeStyle=orthogonalEdgeStyle;rounded=0;orthogonalLoop=1;jettySize=auto;html=1;entryX=0;entryY=0.5;entryDx=0;entryDy=0;" edge="1" parent="1" source="2dMqf0UhAoNqgRJj8EPE-5" target="2dMqf0UhAoNqgRJj8EPE-10">
          <mxGeometry relative="1" as="geometry">
            <Array as="points">
              <mxPoint x="675" y="189" />
            </Array>
          </mxGeometry>
        </mxCell>
        <mxCell id="2dMqf0UhAoNqgRJj8EPE-153" style="edgeStyle=orthogonalEdgeStyle;rounded=0;orthogonalLoop=1;jettySize=auto;html=1;entryX=0;entryY=0.5;entryDx=0;entryDy=0;" edge="1" parent="1" source="2dMqf0UhAoNqgRJj8EPE-5" target="2dMqf0UhAoNqgRJj8EPE-51">
          <mxGeometry relative="1" as="geometry">
            <Array as="points">
              <mxPoint x="730" y="500" />
              <mxPoint x="1540" y="500" />
              <mxPoint x="1540" y="715" />
            </Array>
          </mxGeometry>
        </mxCell>
        <mxCell id="2dMqf0UhAoNqgRJj8EPE-5" value="CalculatorModel" style="swimlane;fontStyle=1;align=center;verticalAlign=top;childLayout=stackLayout;horizontal=1;startSize=26;horizontalStack=0;resizeParent=1;resizeParentMax=0;resizeLast=0;collapsible=1;marginBottom=0;whiteSpace=wrap;html=1;" vertex="1" parent="1">
          <mxGeometry x="625" y="340" width="210" height="86" as="geometry" />
        </mxCell>
        <mxCell id="2dMqf0UhAoNqgRJj8EPE-6" value="+ _presenter: ICalculatorPresenter" style="text;strokeColor=none;fillColor=none;align=left;verticalAlign=top;spacingLeft=4;spacingRight=4;overflow=hidden;rotatable=0;points=[[0,0.5],[1,0.5]];portConstraint=eastwest;whiteSpace=wrap;html=1;" vertex="1" parent="2dMqf0UhAoNqgRJj8EPE-5">
          <mxGeometry y="26" width="210" height="26" as="geometry" />
        </mxCell>
        <mxCell id="2dMqf0UhAoNqgRJj8EPE-7" value="" style="line;strokeWidth=1;fillColor=none;align=left;verticalAlign=middle;spacingTop=-1;spacingLeft=3;spacingRight=3;rotatable=0;labelPosition=right;points=[];portConstraint=eastwest;strokeColor=inherit;" vertex="1" parent="2dMqf0UhAoNqgRJj8EPE-5">
          <mxGeometry y="52" width="210" height="8" as="geometry" />
        </mxCell>
        <mxCell id="2dMqf0UhAoNqgRJj8EPE-8" value="+ method(type): type" style="text;strokeColor=none;fillColor=none;align=left;verticalAlign=top;spacingLeft=4;spacingRight=4;overflow=hidden;rotatable=0;points=[[0,0.5],[1,0.5]];portConstraint=eastwest;whiteSpace=wrap;html=1;" vertex="1" parent="2dMqf0UhAoNqgRJj8EPE-5">
          <mxGeometry y="60" width="210" height="26" as="geometry" />
        </mxCell>
        <mxCell id="2dMqf0UhAoNqgRJj8EPE-120" style="edgeStyle=orthogonalEdgeStyle;rounded=0;orthogonalLoop=1;jettySize=auto;html=1;entryX=0;entryY=0.5;entryDx=0;entryDy=0;" edge="1" parent="1" source="2dMqf0UhAoNqgRJj8EPE-9" target="2dMqf0UhAoNqgRJj8EPE-82">
          <mxGeometry relative="1" as="geometry">
            <Array as="points">
              <mxPoint x="870" y="120" />
              <mxPoint x="1127" y="120" />
              <mxPoint x="1127" y="160" />
              <mxPoint x="1490" y="160" />
              <mxPoint x="1490" y="349" />
            </Array>
          </mxGeometry>
        </mxCell>
        <mxCell id="2dMqf0UhAoNqgRJj8EPE-9" value="CalculatorPresenter" style="swimlane;fontStyle=1;align=center;verticalAlign=top;childLayout=stackLayout;horizontal=1;startSize=26;horizontalStack=0;resizeParent=1;resizeParentMax=0;resizeLast=0;collapsible=1;marginBottom=0;whiteSpace=wrap;html=1;" vertex="1" parent="1">
          <mxGeometry x="775" y="150" width="190" height="112" as="geometry" />
        </mxCell>
        <mxCell id="2dMqf0UhAoNqgRJj8EPE-10" value="+ _view: ICalculatorView&lt;div&gt;&lt;br&gt;&lt;/div&gt;" style="text;strokeColor=none;fillColor=none;align=left;verticalAlign=top;spacingLeft=4;spacingRight=4;overflow=hidden;rotatable=0;points=[[0,0.5],[1,0.5]];portConstraint=eastwest;whiteSpace=wrap;html=1;" vertex="1" parent="2dMqf0UhAoNqgRJj8EPE-9">
          <mxGeometry y="26" width="190" height="26" as="geometry" />
        </mxCell>
        <mxCell id="2dMqf0UhAoNqgRJj8EPE-18" value="+ _model: ICalculatorModel&lt;div&gt;&lt;br&gt;&lt;/div&gt;" style="text;strokeColor=none;fillColor=none;align=left;verticalAlign=top;spacingLeft=4;spacingRight=4;overflow=hidden;rotatable=0;points=[[0,0.5],[1,0.5]];portConstraint=eastwest;whiteSpace=wrap;html=1;" vertex="1" parent="2dMqf0UhAoNqgRJj8EPE-9">
          <mxGeometry y="52" width="190" height="26" as="geometry" />
        </mxCell>
        <mxCell id="2dMqf0UhAoNqgRJj8EPE-11" value="" style="line;strokeWidth=1;fillColor=none;align=left;verticalAlign=middle;spacingTop=-1;spacingLeft=3;spacingRight=3;rotatable=0;labelPosition=right;points=[];portConstraint=eastwest;strokeColor=inherit;" vertex="1" parent="2dMqf0UhAoNqgRJj8EPE-9">
          <mxGeometry y="78" width="190" height="8" as="geometry" />
        </mxCell>
        <mxCell id="2dMqf0UhAoNqgRJj8EPE-12" value="+ method(type): type" style="text;strokeColor=none;fillColor=none;align=left;verticalAlign=top;spacingLeft=4;spacingRight=4;overflow=hidden;rotatable=0;points=[[0,0.5],[1,0.5]];portConstraint=eastwest;whiteSpace=wrap;html=1;" vertex="1" parent="2dMqf0UhAoNqgRJj8EPE-9">
          <mxGeometry y="86" width="190" height="26" as="geometry" />
        </mxCell>
        <mxCell id="2dMqf0UhAoNqgRJj8EPE-23" style="edgeStyle=orthogonalEdgeStyle;rounded=0;orthogonalLoop=1;jettySize=auto;html=1;entryX=0.333;entryY=0;entryDx=0;entryDy=0;entryPerimeter=0;" edge="1" parent="1" source="2dMqf0UhAoNqgRJj8EPE-18" target="2dMqf0UhAoNqgRJj8EPE-5">
          <mxGeometry relative="1" as="geometry" />
        </mxCell>
        <mxCell id="2dMqf0UhAoNqgRJj8EPE-27" style="edgeStyle=orthogonalEdgeStyle;rounded=0;orthogonalLoop=1;jettySize=auto;html=1;exitX=1;exitY=0.5;exitDx=0;exitDy=0;" edge="1" parent="1" source="2dMqf0UhAoNqgRJj8EPE-18" target="2dMqf0UhAoNqgRJj8EPE-1">
          <mxGeometry relative="1" as="geometry">
            <Array as="points">
              <mxPoint x="1065" y="215" />
            </Array>
          </mxGeometry>
        </mxCell>
        <mxCell id="2dMqf0UhAoNqgRJj8EPE-72" style="edgeStyle=orthogonalEdgeStyle;rounded=0;orthogonalLoop=1;jettySize=auto;html=1;entryX=0.5;entryY=0;entryDx=0;entryDy=0;" edge="1" parent="1" source="2dMqf0UhAoNqgRJj8EPE-29" target="2dMqf0UhAoNqgRJj8EPE-58">
          <mxGeometry relative="1" as="geometry">
            <Array as="points">
              <mxPoint x="265" y="480" />
              <mxPoint x="265" y="244" />
              <mxPoint x="390" y="244" />
            </Array>
          </mxGeometry>
        </mxCell>
        <mxCell id="2dMqf0UhAoNqgRJj8EPE-29" value="Bootstrapper" style="swimlane;fontStyle=1;align=center;verticalAlign=top;childLayout=stackLayout;horizontal=1;startSize=26;horizontalStack=0;resizeParent=1;resizeParentMax=0;resizeLast=0;collapsible=1;marginBottom=0;whiteSpace=wrap;html=1;" vertex="1" parent="1">
          <mxGeometry x="60" y="444" width="160" height="86" as="geometry" />
        </mxCell>
        <mxCell id="2dMqf0UhAoNqgRJj8EPE-30" value="+ field: type" style="text;strokeColor=none;fillColor=none;align=left;verticalAlign=top;spacingLeft=4;spacingRight=4;overflow=hidden;rotatable=0;points=[[0,0.5],[1,0.5]];portConstraint=eastwest;whiteSpace=wrap;html=1;" vertex="1" parent="2dMqf0UhAoNqgRJj8EPE-29">
          <mxGeometry y="26" width="160" height="26" as="geometry" />
        </mxCell>
        <mxCell id="2dMqf0UhAoNqgRJj8EPE-31" value="" style="line;strokeWidth=1;fillColor=none;align=left;verticalAlign=middle;spacingTop=-1;spacingLeft=3;spacingRight=3;rotatable=0;labelPosition=right;points=[];portConstraint=eastwest;strokeColor=inherit;" vertex="1" parent="2dMqf0UhAoNqgRJj8EPE-29">
          <mxGeometry y="52" width="160" height="8" as="geometry" />
        </mxCell>
        <mxCell id="2dMqf0UhAoNqgRJj8EPE-32" value="+ method(type): type" style="text;strokeColor=none;fillColor=none;align=left;verticalAlign=top;spacingLeft=4;spacingRight=4;overflow=hidden;rotatable=0;points=[[0,0.5],[1,0.5]];portConstraint=eastwest;whiteSpace=wrap;html=1;" vertex="1" parent="2dMqf0UhAoNqgRJj8EPE-29">
          <mxGeometry y="60" width="160" height="26" as="geometry" />
        </mxCell>
        <mxCell id="2dMqf0UhAoNqgRJj8EPE-33" style="edgeStyle=orthogonalEdgeStyle;rounded=0;orthogonalLoop=1;jettySize=auto;html=1;exitX=0.75;exitY=0;exitDx=0;exitDy=0;entryX=1;entryY=0.5;entryDx=0;entryDy=0;" edge="1" parent="1" source="2dMqf0UhAoNqgRJj8EPE-34" target="2dMqf0UhAoNqgRJj8EPE-44">
          <mxGeometry relative="1" as="geometry" />
        </mxCell>
        <mxCell id="2dMqf0UhAoNqgRJj8EPE-34" value="WarningView" style="swimlane;fontStyle=1;align=center;verticalAlign=top;childLayout=stackLayout;horizontal=1;startSize=26;horizontalStack=0;resizeParent=1;resizeParentMax=0;resizeLast=0;collapsible=1;marginBottom=0;whiteSpace=wrap;html=1;" vertex="1" parent="1">
          <mxGeometry x="940" y="763" width="210" height="86" as="geometry" />
        </mxCell>
        <mxCell id="2dMqf0UhAoNqgRJj8EPE-35" value="+ _presenter: I&lt;span style=&quot;text-align: center;&quot;&gt;Warning&lt;/span&gt;Presenter" style="text;strokeColor=none;fillColor=none;align=left;verticalAlign=top;spacingLeft=4;spacingRight=4;overflow=hidden;rotatable=0;points=[[0,0.5],[1,0.5]];portConstraint=eastwest;whiteSpace=wrap;html=1;" vertex="1" parent="2dMqf0UhAoNqgRJj8EPE-34">
          <mxGeometry y="26" width="210" height="26" as="geometry" />
        </mxCell>
        <mxCell id="2dMqf0UhAoNqgRJj8EPE-36" value="" style="line;strokeWidth=1;fillColor=none;align=left;verticalAlign=middle;spacingTop=-1;spacingLeft=3;spacingRight=3;rotatable=0;labelPosition=right;points=[];portConstraint=eastwest;strokeColor=inherit;" vertex="1" parent="2dMqf0UhAoNqgRJj8EPE-34">
          <mxGeometry y="52" width="210" height="8" as="geometry" />
        </mxCell>
        <mxCell id="2dMqf0UhAoNqgRJj8EPE-37" value="+ method(type): type" style="text;strokeColor=none;fillColor=none;align=left;verticalAlign=top;spacingLeft=4;spacingRight=4;overflow=hidden;rotatable=0;points=[[0,0.5],[1,0.5]];portConstraint=eastwest;whiteSpace=wrap;html=1;" vertex="1" parent="2dMqf0UhAoNqgRJj8EPE-34">
          <mxGeometry y="60" width="210" height="26" as="geometry" />
        </mxCell>
        <mxCell id="2dMqf0UhAoNqgRJj8EPE-38" style="edgeStyle=orthogonalEdgeStyle;rounded=0;orthogonalLoop=1;jettySize=auto;html=1;entryX=0;entryY=0.5;entryDx=0;entryDy=0;" edge="1" parent="1" source="2dMqf0UhAoNqgRJj8EPE-39" target="2dMqf0UhAoNqgRJj8EPE-44">
          <mxGeometry relative="1" as="geometry" />
        </mxCell>
        <mxCell id="2dMqf0UhAoNqgRJj8EPE-39" value="WarningModel" style="swimlane;fontStyle=1;align=center;verticalAlign=top;childLayout=stackLayout;horizontal=1;startSize=26;horizontalStack=0;resizeParent=1;resizeParentMax=0;resizeLast=0;collapsible=1;marginBottom=0;whiteSpace=wrap;html=1;" vertex="1" parent="1">
          <mxGeometry x="640" y="763" width="210" height="86" as="geometry" />
        </mxCell>
        <mxCell id="2dMqf0UhAoNqgRJj8EPE-40" value="+ _presenter: I&lt;span style=&quot;text-align: center;&quot;&gt;Warning&lt;/span&gt;Presenter" style="text;strokeColor=none;fillColor=none;align=left;verticalAlign=top;spacingLeft=4;spacingRight=4;overflow=hidden;rotatable=0;points=[[0,0.5],[1,0.5]];portConstraint=eastwest;whiteSpace=wrap;html=1;" vertex="1" parent="2dMqf0UhAoNqgRJj8EPE-39">
          <mxGeometry y="26" width="210" height="26" as="geometry" />
        </mxCell>
        <mxCell id="2dMqf0UhAoNqgRJj8EPE-41" value="" style="line;strokeWidth=1;fillColor=none;align=left;verticalAlign=middle;spacingTop=-1;spacingLeft=3;spacingRight=3;rotatable=0;labelPosition=right;points=[];portConstraint=eastwest;strokeColor=inherit;" vertex="1" parent="2dMqf0UhAoNqgRJj8EPE-39">
          <mxGeometry y="52" width="210" height="8" as="geometry" />
        </mxCell>
        <mxCell id="2dMqf0UhAoNqgRJj8EPE-42" value="+ method(type): type" style="text;strokeColor=none;fillColor=none;align=left;verticalAlign=top;spacingLeft=4;spacingRight=4;overflow=hidden;rotatable=0;points=[[0,0.5],[1,0.5]];portConstraint=eastwest;whiteSpace=wrap;html=1;" vertex="1" parent="2dMqf0UhAoNqgRJj8EPE-39">
          <mxGeometry y="60" width="210" height="26" as="geometry" />
        </mxCell>
        <mxCell id="2dMqf0UhAoNqgRJj8EPE-43" value="WarningPresenter" style="swimlane;fontStyle=1;align=center;verticalAlign=top;childLayout=stackLayout;horizontal=1;startSize=26;horizontalStack=0;resizeParent=1;resizeParentMax=0;resizeLast=0;collapsible=1;marginBottom=0;whiteSpace=wrap;html=1;" vertex="1" parent="1">
          <mxGeometry x="790" y="573" width="190" height="112" as="geometry" />
        </mxCell>
        <mxCell id="2dMqf0UhAoNqgRJj8EPE-44" value="+ _view: I&lt;span style=&quot;text-align: center;&quot;&gt;Warning&lt;/span&gt;View&lt;div&gt;&lt;br&gt;&lt;/div&gt;" style="text;strokeColor=none;fillColor=none;align=left;verticalAlign=top;spacingLeft=4;spacingRight=4;overflow=hidden;rotatable=0;points=[[0,0.5],[1,0.5]];portConstraint=eastwest;whiteSpace=wrap;html=1;" vertex="1" parent="2dMqf0UhAoNqgRJj8EPE-43">
          <mxGeometry y="26" width="190" height="26" as="geometry" />
        </mxCell>
        <mxCell id="2dMqf0UhAoNqgRJj8EPE-45" value="+ _model: I&lt;span style=&quot;text-align: center;&quot;&gt;Warning&lt;/span&gt;Model&lt;div&gt;&lt;br&gt;&lt;/div&gt;" style="text;strokeColor=none;fillColor=none;align=left;verticalAlign=top;spacingLeft=4;spacingRight=4;overflow=hidden;rotatable=0;points=[[0,0.5],[1,0.5]];portConstraint=eastwest;whiteSpace=wrap;html=1;" vertex="1" parent="2dMqf0UhAoNqgRJj8EPE-43">
          <mxGeometry y="52" width="190" height="26" as="geometry" />
        </mxCell>
        <mxCell id="2dMqf0UhAoNqgRJj8EPE-46" value="" style="line;strokeWidth=1;fillColor=none;align=left;verticalAlign=middle;spacingTop=-1;spacingLeft=3;spacingRight=3;rotatable=0;labelPosition=right;points=[];portConstraint=eastwest;strokeColor=inherit;" vertex="1" parent="2dMqf0UhAoNqgRJj8EPE-43">
          <mxGeometry y="78" width="190" height="8" as="geometry" />
        </mxCell>
        <mxCell id="2dMqf0UhAoNqgRJj8EPE-47" value="+ method(type): type" style="text;strokeColor=none;fillColor=none;align=left;verticalAlign=top;spacingLeft=4;spacingRight=4;overflow=hidden;rotatable=0;points=[[0,0.5],[1,0.5]];portConstraint=eastwest;whiteSpace=wrap;html=1;" vertex="1" parent="2dMqf0UhAoNqgRJj8EPE-43">
          <mxGeometry y="86" width="190" height="26" as="geometry" />
        </mxCell>
        <mxCell id="2dMqf0UhAoNqgRJj8EPE-48" style="edgeStyle=orthogonalEdgeStyle;rounded=0;orthogonalLoop=1;jettySize=auto;html=1;entryX=0.605;entryY=-0.012;entryDx=0;entryDy=0;entryPerimeter=0;" edge="1" parent="1" source="2dMqf0UhAoNqgRJj8EPE-45" target="2dMqf0UhAoNqgRJj8EPE-39">
          <mxGeometry relative="1" as="geometry" />
        </mxCell>
        <mxCell id="2dMqf0UhAoNqgRJj8EPE-49" style="edgeStyle=orthogonalEdgeStyle;rounded=0;orthogonalLoop=1;jettySize=auto;html=1;exitX=1;exitY=0.5;exitDx=0;exitDy=0;" edge="1" parent="1" source="2dMqf0UhAoNqgRJj8EPE-45" target="2dMqf0UhAoNqgRJj8EPE-34">
          <mxGeometry relative="1" as="geometry">
            <Array as="points">
              <mxPoint x="1070" y="638" />
            </Array>
          </mxGeometry>
        </mxCell>
        <mxCell id="2dMqf0UhAoNqgRJj8EPE-105" style="edgeStyle=orthogonalEdgeStyle;rounded=0;orthogonalLoop=1;jettySize=auto;html=1;entryX=0;entryY=0.5;entryDx=0;entryDy=0;" edge="1" parent="1" source="2dMqf0UhAoNqgRJj8EPE-50" target="2dMqf0UhAoNqgRJj8EPE-97">
          <mxGeometry relative="1" as="geometry" />
        </mxCell>
        <mxCell id="2dMqf0UhAoNqgRJj8EPE-50" value="SaveDataService" style="swimlane;fontStyle=1;align=center;verticalAlign=top;childLayout=stackLayout;horizontal=1;startSize=26;horizontalStack=0;resizeParent=1;resizeParentMax=0;resizeLast=0;collapsible=1;marginBottom=0;whiteSpace=wrap;html=1;" vertex="1" parent="1">
          <mxGeometry x="1590" y="675.5" width="160" height="86" as="geometry" />
        </mxCell>
        <mxCell id="2dMqf0UhAoNqgRJj8EPE-51" value="+ field: type" style="text;strokeColor=none;fillColor=none;align=left;verticalAlign=top;spacingLeft=4;spacingRight=4;overflow=hidden;rotatable=0;points=[[0,0.5],[1,0.5]];portConstraint=eastwest;whiteSpace=wrap;html=1;" vertex="1" parent="2dMqf0UhAoNqgRJj8EPE-50">
          <mxGeometry y="26" width="160" height="26" as="geometry" />
        </mxCell>
        <mxCell id="2dMqf0UhAoNqgRJj8EPE-52" value="" style="line;strokeWidth=1;fillColor=none;align=left;verticalAlign=middle;spacingTop=-1;spacingLeft=3;spacingRight=3;rotatable=0;labelPosition=right;points=[];portConstraint=eastwest;strokeColor=inherit;" vertex="1" parent="2dMqf0UhAoNqgRJj8EPE-50">
          <mxGeometry y="52" width="160" height="8" as="geometry" />
        </mxCell>
        <mxCell id="2dMqf0UhAoNqgRJj8EPE-53" value="+ method(type): type" style="text;strokeColor=none;fillColor=none;align=left;verticalAlign=top;spacingLeft=4;spacingRight=4;overflow=hidden;rotatable=0;points=[[0,0.5],[1,0.5]];portConstraint=eastwest;whiteSpace=wrap;html=1;" vertex="1" parent="2dMqf0UhAoNqgRJj8EPE-50">
          <mxGeometry y="60" width="160" height="26" as="geometry" />
        </mxCell>
        <mxCell id="2dMqf0UhAoNqgRJj8EPE-115" style="edgeStyle=orthogonalEdgeStyle;rounded=0;orthogonalLoop=1;jettySize=auto;html=1;" edge="1" parent="1" source="2dMqf0UhAoNqgRJj8EPE-54" target="2dMqf0UhAoNqgRJj8EPE-111">
          <mxGeometry relative="1" as="geometry" />
        </mxCell>
        <mxCell id="2dMqf0UhAoNqgRJj8EPE-54" value="AssetProvider" style="swimlane;fontStyle=1;align=center;verticalAlign=top;childLayout=stackLayout;horizontal=1;startSize=26;horizontalStack=0;resizeParent=1;resizeParentMax=0;resizeLast=0;collapsible=1;marginBottom=0;whiteSpace=wrap;html=1;" vertex="1" parent="1">
          <mxGeometry x="1563" y="1060" width="160" height="86" as="geometry" />
        </mxCell>
        <mxCell id="2dMqf0UhAoNqgRJj8EPE-55" value="+ field: type" style="text;strokeColor=none;fillColor=none;align=left;verticalAlign=top;spacingLeft=4;spacingRight=4;overflow=hidden;rotatable=0;points=[[0,0.5],[1,0.5]];portConstraint=eastwest;whiteSpace=wrap;html=1;" vertex="1" parent="2dMqf0UhAoNqgRJj8EPE-54">
          <mxGeometry y="26" width="160" height="26" as="geometry" />
        </mxCell>
        <mxCell id="2dMqf0UhAoNqgRJj8EPE-56" value="" style="line;strokeWidth=1;fillColor=none;align=left;verticalAlign=middle;spacingTop=-1;spacingLeft=3;spacingRight=3;rotatable=0;labelPosition=right;points=[];portConstraint=eastwest;strokeColor=inherit;" vertex="1" parent="2dMqf0UhAoNqgRJj8EPE-54">
          <mxGeometry y="52" width="160" height="8" as="geometry" />
        </mxCell>
        <mxCell id="2dMqf0UhAoNqgRJj8EPE-57" value="+ method(type): type" style="text;strokeColor=none;fillColor=none;align=left;verticalAlign=top;spacingLeft=4;spacingRight=4;overflow=hidden;rotatable=0;points=[[0,0.5],[1,0.5]];portConstraint=eastwest;whiteSpace=wrap;html=1;" vertex="1" parent="2dMqf0UhAoNqgRJj8EPE-54">
          <mxGeometry y="60" width="160" height="26" as="geometry" />
        </mxCell>
        <mxCell id="2dMqf0UhAoNqgRJj8EPE-58" value="CalculatorFacade" style="swimlane;fontStyle=1;align=center;verticalAlign=top;childLayout=stackLayout;horizontal=1;startSize=26;horizontalStack=0;resizeParent=1;resizeParentMax=0;resizeLast=0;collapsible=1;marginBottom=0;whiteSpace=wrap;html=1;" vertex="1" parent="1">
          <mxGeometry x="310" y="264" width="160" height="86" as="geometry" />
        </mxCell>
        <mxCell id="2dMqf0UhAoNqgRJj8EPE-59" value="+ field: type" style="text;strokeColor=none;fillColor=none;align=left;verticalAlign=top;spacingLeft=4;spacingRight=4;overflow=hidden;rotatable=0;points=[[0,0.5],[1,0.5]];portConstraint=eastwest;whiteSpace=wrap;html=1;" vertex="1" parent="2dMqf0UhAoNqgRJj8EPE-58">
          <mxGeometry y="26" width="160" height="26" as="geometry" />
        </mxCell>
        <mxCell id="2dMqf0UhAoNqgRJj8EPE-60" value="" style="line;strokeWidth=1;fillColor=none;align=left;verticalAlign=middle;spacingTop=-1;spacingLeft=3;spacingRight=3;rotatable=0;labelPosition=right;points=[];portConstraint=eastwest;strokeColor=inherit;" vertex="1" parent="2dMqf0UhAoNqgRJj8EPE-58">
          <mxGeometry y="52" width="160" height="8" as="geometry" />
        </mxCell>
        <mxCell id="2dMqf0UhAoNqgRJj8EPE-61" value="+ method(type): type" style="text;strokeColor=none;fillColor=none;align=left;verticalAlign=top;spacingLeft=4;spacingRight=4;overflow=hidden;rotatable=0;points=[[0,0.5],[1,0.5]];portConstraint=eastwest;whiteSpace=wrap;html=1;" vertex="1" parent="2dMqf0UhAoNqgRJj8EPE-58">
          <mxGeometry y="60" width="160" height="26" as="geometry" />
        </mxCell>
        <mxCell id="2dMqf0UhAoNqgRJj8EPE-62" value="WarningService" style="swimlane;fontStyle=1;align=center;verticalAlign=top;childLayout=stackLayout;horizontal=1;startSize=26;horizontalStack=0;resizeParent=1;resizeParentMax=0;resizeLast=0;collapsible=1;marginBottom=0;whiteSpace=wrap;html=1;" vertex="1" parent="1">
          <mxGeometry x="310" y="650" width="160" height="86" as="geometry" />
        </mxCell>
        <mxCell id="2dMqf0UhAoNqgRJj8EPE-63" value="+ field: type" style="text;strokeColor=none;fillColor=none;align=left;verticalAlign=top;spacingLeft=4;spacingRight=4;overflow=hidden;rotatable=0;points=[[0,0.5],[1,0.5]];portConstraint=eastwest;whiteSpace=wrap;html=1;" vertex="1" parent="2dMqf0UhAoNqgRJj8EPE-62">
          <mxGeometry y="26" width="160" height="26" as="geometry" />
        </mxCell>
        <mxCell id="2dMqf0UhAoNqgRJj8EPE-64" value="" style="line;strokeWidth=1;fillColor=none;align=left;verticalAlign=middle;spacingTop=-1;spacingLeft=3;spacingRight=3;rotatable=0;labelPosition=right;points=[];portConstraint=eastwest;strokeColor=inherit;" vertex="1" parent="2dMqf0UhAoNqgRJj8EPE-62">
          <mxGeometry y="52" width="160" height="8" as="geometry" />
        </mxCell>
        <mxCell id="2dMqf0UhAoNqgRJj8EPE-65" value="+ method(type): type" style="text;strokeColor=none;fillColor=none;align=left;verticalAlign=top;spacingLeft=4;spacingRight=4;overflow=hidden;rotatable=0;points=[[0,0.5],[1,0.5]];portConstraint=eastwest;whiteSpace=wrap;html=1;" vertex="1" parent="2dMqf0UhAoNqgRJj8EPE-62">
          <mxGeometry y="60" width="160" height="26" as="geometry" />
        </mxCell>
        <mxCell id="2dMqf0UhAoNqgRJj8EPE-66" value="Calculator" style="shape=umlFrame;whiteSpace=wrap;html=1;pointerEvents=0;" vertex="1" parent="1">
          <mxGeometry x="570" y="100" width="780" height="370" as="geometry" />
        </mxCell>
        <mxCell id="2dMqf0UhAoNqgRJj8EPE-67" value="Warning" style="shape=umlFrame;whiteSpace=wrap;html=1;pointerEvents=0;" vertex="1" parent="1">
          <mxGeometry x="570" y="530" width="780" height="370" as="geometry" />
        </mxCell>
        <mxCell id="2dMqf0UhAoNqgRJj8EPE-68" style="edgeStyle=orthogonalEdgeStyle;rounded=0;orthogonalLoop=1;jettySize=auto;html=1;entryX=0;entryY=0.443;entryDx=0;entryDy=0;entryPerimeter=0;" edge="1" parent="1" source="2dMqf0UhAoNqgRJj8EPE-58" target="2dMqf0UhAoNqgRJj8EPE-66">
          <mxGeometry relative="1" as="geometry" />
        </mxCell>
        <mxCell id="2dMqf0UhAoNqgRJj8EPE-69" style="edgeStyle=orthogonalEdgeStyle;rounded=0;orthogonalLoop=1;jettySize=auto;html=1;entryX=-0.006;entryY=0.552;entryDx=0;entryDy=0;entryPerimeter=0;" edge="1" parent="1" source="2dMqf0UhAoNqgRJj8EPE-62" target="2dMqf0UhAoNqgRJj8EPE-67">
          <mxGeometry relative="1" as="geometry" />
        </mxCell>
        <mxCell id="2dMqf0UhAoNqgRJj8EPE-71" style="edgeStyle=orthogonalEdgeStyle;rounded=0;orthogonalLoop=1;jettySize=auto;html=1;entryX=0.5;entryY=0;entryDx=0;entryDy=0;" edge="1" parent="1" source="2dMqf0UhAoNqgRJj8EPE-30" target="2dMqf0UhAoNqgRJj8EPE-62">
          <mxGeometry relative="1" as="geometry" />
        </mxCell>
        <mxCell id="2dMqf0UhAoNqgRJj8EPE-73" value="CommandHistory" style="swimlane;fontStyle=1;align=center;verticalAlign=top;childLayout=stackLayout;horizontal=1;startSize=26;horizontalStack=0;resizeParent=1;resizeParentMax=0;resizeLast=0;collapsible=1;marginBottom=0;whiteSpace=wrap;html=1;" vertex="1" parent="1">
          <mxGeometry x="1723" y="160" width="160" height="86" as="geometry" />
        </mxCell>
        <mxCell id="2dMqf0UhAoNqgRJj8EPE-74" value="+ field: type" style="text;strokeColor=none;fillColor=none;align=left;verticalAlign=top;spacingLeft=4;spacingRight=4;overflow=hidden;rotatable=0;points=[[0,0.5],[1,0.5]];portConstraint=eastwest;whiteSpace=wrap;html=1;" vertex="1" parent="2dMqf0UhAoNqgRJj8EPE-73">
          <mxGeometry y="26" width="160" height="26" as="geometry" />
        </mxCell>
        <mxCell id="2dMqf0UhAoNqgRJj8EPE-75" value="" style="line;strokeWidth=1;fillColor=none;align=left;verticalAlign=middle;spacingTop=-1;spacingLeft=3;spacingRight=3;rotatable=0;labelPosition=right;points=[];portConstraint=eastwest;strokeColor=inherit;" vertex="1" parent="2dMqf0UhAoNqgRJj8EPE-73">
          <mxGeometry y="52" width="160" height="8" as="geometry" />
        </mxCell>
        <mxCell id="2dMqf0UhAoNqgRJj8EPE-76" value="+ method(type): type" style="text;strokeColor=none;fillColor=none;align=left;verticalAlign=top;spacingLeft=4;spacingRight=4;overflow=hidden;rotatable=0;points=[[0,0.5],[1,0.5]];portConstraint=eastwest;whiteSpace=wrap;html=1;" vertex="1" parent="2dMqf0UhAoNqgRJj8EPE-73">
          <mxGeometry y="60" width="160" height="26" as="geometry" />
        </mxCell>
        <mxCell id="2dMqf0UhAoNqgRJj8EPE-77" value="MathCommand" style="swimlane;fontStyle=1;align=center;verticalAlign=top;childLayout=stackLayout;horizontal=1;startSize=26;horizontalStack=0;resizeParent=1;resizeParentMax=0;resizeLast=0;collapsible=1;marginBottom=0;whiteSpace=wrap;html=1;" vertex="1" parent="1">
          <mxGeometry x="1873" y="310" width="160" height="86" as="geometry" />
        </mxCell>
        <mxCell id="2dMqf0UhAoNqgRJj8EPE-78" value="+ field: type" style="text;strokeColor=none;fillColor=none;align=left;verticalAlign=top;spacingLeft=4;spacingRight=4;overflow=hidden;rotatable=0;points=[[0,0.5],[1,0.5]];portConstraint=eastwest;whiteSpace=wrap;html=1;" vertex="1" parent="2dMqf0UhAoNqgRJj8EPE-77">
          <mxGeometry y="26" width="160" height="26" as="geometry" />
        </mxCell>
        <mxCell id="2dMqf0UhAoNqgRJj8EPE-79" value="" style="line;strokeWidth=1;fillColor=none;align=left;verticalAlign=middle;spacingTop=-1;spacingLeft=3;spacingRight=3;rotatable=0;labelPosition=right;points=[];portConstraint=eastwest;strokeColor=inherit;" vertex="1" parent="2dMqf0UhAoNqgRJj8EPE-77">
          <mxGeometry y="52" width="160" height="8" as="geometry" />
        </mxCell>
        <mxCell id="2dMqf0UhAoNqgRJj8EPE-80" value="+ method(type): type" style="text;strokeColor=none;fillColor=none;align=left;verticalAlign=top;spacingLeft=4;spacingRight=4;overflow=hidden;rotatable=0;points=[[0,0.5],[1,0.5]];portConstraint=eastwest;whiteSpace=wrap;html=1;" vertex="1" parent="2dMqf0UhAoNqgRJj8EPE-77">
          <mxGeometry y="60" width="160" height="26" as="geometry" />
        </mxCell>
        <mxCell id="2dMqf0UhAoNqgRJj8EPE-87" style="edgeStyle=orthogonalEdgeStyle;rounded=0;orthogonalLoop=1;jettySize=auto;html=1;entryX=0;entryY=0.5;entryDx=0;entryDy=0;" edge="1" parent="1" source="2dMqf0UhAoNqgRJj8EPE-81" target="2dMqf0UhAoNqgRJj8EPE-74">
          <mxGeometry relative="1" as="geometry" />
        </mxCell>
        <mxCell id="2dMqf0UhAoNqgRJj8EPE-88" style="edgeStyle=orthogonalEdgeStyle;rounded=0;orthogonalLoop=1;jettySize=auto;html=1;entryX=0;entryY=0.5;entryDx=0;entryDy=0;" edge="1" parent="1" source="2dMqf0UhAoNqgRJj8EPE-81" target="2dMqf0UhAoNqgRJj8EPE-78">
          <mxGeometry relative="1" as="geometry" />
        </mxCell>
        <mxCell id="2dMqf0UhAoNqgRJj8EPE-81" value="CommandExecutionStrategy" style="swimlane;fontStyle=1;align=center;verticalAlign=top;childLayout=stackLayout;horizontal=1;startSize=26;horizontalStack=0;resizeParent=1;resizeParentMax=0;resizeLast=0;collapsible=1;marginBottom=0;whiteSpace=wrap;html=1;" vertex="1" parent="1">
          <mxGeometry x="1570" y="310" width="200" height="86" as="geometry" />
        </mxCell>
        <mxCell id="2dMqf0UhAoNqgRJj8EPE-82" value="+ field: type" style="text;strokeColor=none;fillColor=none;align=left;verticalAlign=top;spacingLeft=4;spacingRight=4;overflow=hidden;rotatable=0;points=[[0,0.5],[1,0.5]];portConstraint=eastwest;whiteSpace=wrap;html=1;" vertex="1" parent="2dMqf0UhAoNqgRJj8EPE-81">
          <mxGeometry y="26" width="200" height="26" as="geometry" />
        </mxCell>
        <mxCell id="2dMqf0UhAoNqgRJj8EPE-83" value="" style="line;strokeWidth=1;fillColor=none;align=left;verticalAlign=middle;spacingTop=-1;spacingLeft=3;spacingRight=3;rotatable=0;labelPosition=right;points=[];portConstraint=eastwest;strokeColor=inherit;" vertex="1" parent="2dMqf0UhAoNqgRJj8EPE-81">
          <mxGeometry y="52" width="200" height="8" as="geometry" />
        </mxCell>
        <mxCell id="2dMqf0UhAoNqgRJj8EPE-84" value="+ method(type): type" style="text;strokeColor=none;fillColor=none;align=left;verticalAlign=top;spacingLeft=4;spacingRight=4;overflow=hidden;rotatable=0;points=[[0,0.5],[1,0.5]];portConstraint=eastwest;whiteSpace=wrap;html=1;" vertex="1" parent="2dMqf0UhAoNqgRJj8EPE-81">
          <mxGeometry y="60" width="200" height="26" as="geometry" />
        </mxCell>
        <mxCell id="2dMqf0UhAoNqgRJj8EPE-85" style="edgeStyle=orthogonalEdgeStyle;rounded=0;orthogonalLoop=1;jettySize=auto;html=1;entryX=0.495;entryY=0.99;entryDx=0;entryDy=0;entryPerimeter=0;" edge="1" parent="1">
          <mxGeometry relative="1" as="geometry">
            <mxPoint x="430.75652173913073" y="650.26" as="sourcePoint" />
            <mxPoint x="429.99999999999983" y="350" as="targetPoint" />
          </mxGeometry>
        </mxCell>
        <mxCell id="2dMqf0UhAoNqgRJj8EPE-86" value="Observe" style="edgeLabel;html=1;align=center;verticalAlign=middle;resizable=0;points=[];" vertex="1" connectable="0" parent="2dMqf0UhAoNqgRJj8EPE-85">
          <mxGeometry x="0.082" y="-1" relative="1" as="geometry">
            <mxPoint as="offset" />
          </mxGeometry>
        </mxCell>
        <mxCell id="2dMqf0UhAoNqgRJj8EPE-89" value="Math&lt;span style=&quot;background-color: initial;&quot;&gt;s&lt;/span&gt;" style="shape=umlFrame;whiteSpace=wrap;html=1;pointerEvents=0;" vertex="1" parent="1">
          <mxGeometry x="1413" y="100" width="780" height="370" as="geometry" />
        </mxCell>
        <mxCell id="2dMqf0UhAoNqgRJj8EPE-96" value="SaveDataServiceImpl" style="swimlane;fontStyle=1;align=center;verticalAlign=top;childLayout=stackLayout;horizontal=1;startSize=26;horizontalStack=0;resizeParent=1;resizeParentMax=0;resizeLast=0;collapsible=1;marginBottom=0;whiteSpace=wrap;html=1;" vertex="1" parent="1">
          <mxGeometry x="1850" y="648.5" width="160" height="86" as="geometry" />
        </mxCell>
        <mxCell id="2dMqf0UhAoNqgRJj8EPE-97" value="+ field: type" style="text;strokeColor=none;fillColor=none;align=left;verticalAlign=top;spacingLeft=4;spacingRight=4;overflow=hidden;rotatable=0;points=[[0,0.5],[1,0.5]];portConstraint=eastwest;whiteSpace=wrap;html=1;" vertex="1" parent="2dMqf0UhAoNqgRJj8EPE-96">
          <mxGeometry y="26" width="160" height="26" as="geometry" />
        </mxCell>
        <mxCell id="2dMqf0UhAoNqgRJj8EPE-98" value="" style="line;strokeWidth=1;fillColor=none;align=left;verticalAlign=middle;spacingTop=-1;spacingLeft=3;spacingRight=3;rotatable=0;labelPosition=right;points=[];portConstraint=eastwest;strokeColor=inherit;" vertex="1" parent="2dMqf0UhAoNqgRJj8EPE-96">
          <mxGeometry y="52" width="160" height="8" as="geometry" />
        </mxCell>
        <mxCell id="2dMqf0UhAoNqgRJj8EPE-99" value="+ method(type): type" style="text;strokeColor=none;fillColor=none;align=left;verticalAlign=top;spacingLeft=4;spacingRight=4;overflow=hidden;rotatable=0;points=[[0,0.5],[1,0.5]];portConstraint=eastwest;whiteSpace=wrap;html=1;" vertex="1" parent="2dMqf0UhAoNqgRJj8EPE-96">
          <mxGeometry y="60" width="160" height="26" as="geometry" />
        </mxCell>
        <mxCell id="2dMqf0UhAoNqgRJj8EPE-100" value="Save" style="shape=umlFrame;whiteSpace=wrap;html=1;pointerEvents=0;" vertex="1" parent="1">
          <mxGeometry x="1413" y="530" width="780" height="370" as="geometry" />
        </mxCell>
        <mxCell id="2dMqf0UhAoNqgRJj8EPE-107" value="......" style="text;align=center;fontStyle=1;verticalAlign=middle;spacingLeft=3;spacingRight=3;strokeColor=none;rotatable=0;points=[[0,0.5],[1,0.5]];portConstraint=eastwest;html=1;" vertex="1" parent="1">
          <mxGeometry x="1910" y="400" width="80" height="26" as="geometry" />
        </mxCell>
        <mxCell id="2dMqf0UhAoNqgRJj8EPE-108" value="......" style="text;align=center;fontStyle=1;verticalAlign=middle;spacingLeft=3;spacingRight=3;strokeColor=none;rotatable=0;points=[[0,0.5],[1,0.5]];portConstraint=eastwest;html=1;" vertex="1" parent="1">
          <mxGeometry x="1890" y="755.5" width="80" height="26" as="geometry" />
        </mxCell>
        <mxCell id="2dMqf0UhAoNqgRJj8EPE-109" value="Resources" style="shape=umlFrame;whiteSpace=wrap;html=1;pointerEvents=0;" vertex="1" parent="1">
          <mxGeometry x="1410" y="960" width="780" height="370" as="geometry" />
        </mxCell>
        <mxCell id="2dMqf0UhAoNqgRJj8EPE-110" value="AssetProviderImpl" style="swimlane;fontStyle=1;align=center;verticalAlign=top;childLayout=stackLayout;horizontal=1;startSize=26;horizontalStack=0;resizeParent=1;resizeParentMax=0;resizeLast=0;collapsible=1;marginBottom=0;whiteSpace=wrap;html=1;" vertex="1" parent="1">
          <mxGeometry x="1833" y="1080" width="240" height="86" as="geometry" />
        </mxCell>
        <mxCell id="2dMqf0UhAoNqgRJj8EPE-111" value="+ field: type" style="text;strokeColor=none;fillColor=none;align=left;verticalAlign=top;spacingLeft=4;spacingRight=4;overflow=hidden;rotatable=0;points=[[0,0.5],[1,0.5]];portConstraint=eastwest;whiteSpace=wrap;html=1;" vertex="1" parent="2dMqf0UhAoNqgRJj8EPE-110">
          <mxGeometry y="26" width="240" height="26" as="geometry" />
        </mxCell>
        <mxCell id="2dMqf0UhAoNqgRJj8EPE-112" value="" style="line;strokeWidth=1;fillColor=none;align=left;verticalAlign=middle;spacingTop=-1;spacingLeft=3;spacingRight=3;rotatable=0;labelPosition=right;points=[];portConstraint=eastwest;strokeColor=inherit;" vertex="1" parent="2dMqf0UhAoNqgRJj8EPE-110">
          <mxGeometry y="52" width="240" height="8" as="geometry" />
        </mxCell>
        <mxCell id="2dMqf0UhAoNqgRJj8EPE-113" value="+ method(type): type" style="text;strokeColor=none;fillColor=none;align=left;verticalAlign=top;spacingLeft=4;spacingRight=4;overflow=hidden;rotatable=0;points=[[0,0.5],[1,0.5]];portConstraint=eastwest;whiteSpace=wrap;html=1;" vertex="1" parent="2dMqf0UhAoNqgRJj8EPE-110">
          <mxGeometry y="60" width="240" height="26" as="geometry" />
        </mxCell>
        <mxCell id="2dMqf0UhAoNqgRJj8EPE-114" value="......" style="text;align=center;fontStyle=1;verticalAlign=middle;spacingLeft=3;spacingRight=3;strokeColor=none;rotatable=0;points=[[0,0.5],[1,0.5]];portConstraint=eastwest;html=1;" vertex="1" parent="1">
          <mxGeometry x="1913" y="1220" width="80" height="26" as="geometry" />
        </mxCell>
        <mxCell id="2dMqf0UhAoNqgRJj8EPE-119" value="......" style="text;align=center;fontStyle=1;verticalAlign=middle;spacingLeft=3;spacingRight=3;strokeColor=none;rotatable=0;points=[[0,0.5],[1,0.5]];portConstraint=eastwest;html=1;" vertex="1" parent="1">
          <mxGeometry x="1630" y="404" width="80" height="26" as="geometry" />
        </mxCell>
        <mxCell id="2dMqf0UhAoNqgRJj8EPE-130" value="CalculatorViewFactory" style="swimlane;fontStyle=1;align=center;verticalAlign=top;childLayout=stackLayout;horizontal=1;startSize=26;horizontalStack=0;resizeParent=1;resizeParentMax=0;resizeLast=0;collapsible=1;marginBottom=0;whiteSpace=wrap;html=1;" vertex="1" parent="1">
          <mxGeometry x="1161" y="242" width="160" height="86" as="geometry" />
        </mxCell>
        <mxCell id="2dMqf0UhAoNqgRJj8EPE-131" value="+ field: type" style="text;strokeColor=none;fillColor=none;align=left;verticalAlign=top;spacingLeft=4;spacingRight=4;overflow=hidden;rotatable=0;points=[[0,0.5],[1,0.5]];portConstraint=eastwest;whiteSpace=wrap;html=1;" vertex="1" parent="2dMqf0UhAoNqgRJj8EPE-130">
          <mxGeometry y="26" width="160" height="26" as="geometry" />
        </mxCell>
        <mxCell id="2dMqf0UhAoNqgRJj8EPE-132" value="" style="line;strokeWidth=1;fillColor=none;align=left;verticalAlign=middle;spacingTop=-1;spacingLeft=3;spacingRight=3;rotatable=0;labelPosition=right;points=[];portConstraint=eastwest;strokeColor=inherit;" vertex="1" parent="2dMqf0UhAoNqgRJj8EPE-130">
          <mxGeometry y="52" width="160" height="8" as="geometry" />
        </mxCell>
        <mxCell id="2dMqf0UhAoNqgRJj8EPE-133" value="+ method(type): type" style="text;strokeColor=none;fillColor=none;align=left;verticalAlign=top;spacingLeft=4;spacingRight=4;overflow=hidden;rotatable=0;points=[[0,0.5],[1,0.5]];portConstraint=eastwest;whiteSpace=wrap;html=1;" vertex="1" parent="2dMqf0UhAoNqgRJj8EPE-130">
          <mxGeometry y="60" width="160" height="26" as="geometry" />
        </mxCell>
        <mxCell id="2dMqf0UhAoNqgRJj8EPE-142" style="edgeStyle=orthogonalEdgeStyle;rounded=0;orthogonalLoop=1;jettySize=auto;html=1;entryX=0.25;entryY=0;entryDx=0;entryDy=0;" edge="1" parent="1" source="2dMqf0UhAoNqgRJj8EPE-134" target="2dMqf0UhAoNqgRJj8EPE-34">
          <mxGeometry relative="1" as="geometry" />
        </mxCell>
        <mxCell id="2dMqf0UhAoNqgRJj8EPE-134" value="CalculatorViewFactory" style="swimlane;fontStyle=1;align=center;verticalAlign=top;childLayout=stackLayout;horizontal=1;startSize=26;horizontalStack=0;resizeParent=1;resizeParentMax=0;resizeLast=0;collapsible=1;marginBottom=0;whiteSpace=wrap;html=1;" vertex="1" parent="1">
          <mxGeometry x="1161" y="620" width="160" height="86" as="geometry" />
        </mxCell>
        <mxCell id="2dMqf0UhAoNqgRJj8EPE-135" value="+ field: type" style="text;strokeColor=none;fillColor=none;align=left;verticalAlign=top;spacingLeft=4;spacingRight=4;overflow=hidden;rotatable=0;points=[[0,0.5],[1,0.5]];portConstraint=eastwest;whiteSpace=wrap;html=1;" vertex="1" parent="2dMqf0UhAoNqgRJj8EPE-134">
          <mxGeometry y="26" width="160" height="26" as="geometry" />
        </mxCell>
        <mxCell id="2dMqf0UhAoNqgRJj8EPE-136" value="" style="line;strokeWidth=1;fillColor=none;align=left;verticalAlign=middle;spacingTop=-1;spacingLeft=3;spacingRight=3;rotatable=0;labelPosition=right;points=[];portConstraint=eastwest;strokeColor=inherit;" vertex="1" parent="2dMqf0UhAoNqgRJj8EPE-134">
          <mxGeometry y="52" width="160" height="8" as="geometry" />
        </mxCell>
        <mxCell id="2dMqf0UhAoNqgRJj8EPE-137" value="+ method(type): type" style="text;strokeColor=none;fillColor=none;align=left;verticalAlign=top;spacingLeft=4;spacingRight=4;overflow=hidden;rotatable=0;points=[[0,0.5],[1,0.5]];portConstraint=eastwest;whiteSpace=wrap;html=1;" vertex="1" parent="2dMqf0UhAoNqgRJj8EPE-134">
          <mxGeometry y="60" width="160" height="26" as="geometry" />
        </mxCell>
        <mxCell id="2dMqf0UhAoNqgRJj8EPE-139" style="edgeStyle=orthogonalEdgeStyle;rounded=0;orthogonalLoop=1;jettySize=auto;html=1;entryX=0.533;entryY=1.005;entryDx=0;entryDy=0;entryPerimeter=0;" edge="1" parent="1" source="2dMqf0UhAoNqgRJj8EPE-58" target="2dMqf0UhAoNqgRJj8EPE-133">
          <mxGeometry relative="1" as="geometry">
            <Array as="points">
              <mxPoint x="390" y="450" />
              <mxPoint x="1246" y="450" />
            </Array>
          </mxGeometry>
        </mxCell>
        <mxCell id="2dMqf0UhAoNqgRJj8EPE-141" style="edgeStyle=orthogonalEdgeStyle;rounded=0;orthogonalLoop=1;jettySize=auto;html=1;entryX=0.382;entryY=0.022;entryDx=0;entryDy=0;entryPerimeter=0;" edge="1" parent="1" source="2dMqf0UhAoNqgRJj8EPE-130" target="2dMqf0UhAoNqgRJj8EPE-1">
          <mxGeometry relative="1" as="geometry" />
        </mxCell>
        <mxCell id="2dMqf0UhAoNqgRJj8EPE-143" style="edgeStyle=orthogonalEdgeStyle;rounded=0;orthogonalLoop=1;jettySize=auto;html=1;entryX=0.519;entryY=0.973;entryDx=0;entryDy=0;entryPerimeter=0;" edge="1" parent="1" source="2dMqf0UhAoNqgRJj8EPE-62" target="2dMqf0UhAoNqgRJj8EPE-137">
          <mxGeometry relative="1" as="geometry">
            <Array as="points">
              <mxPoint x="390" y="880" />
              <mxPoint x="1244" y="880" />
            </Array>
          </mxGeometry>
        </mxCell>
        <mxCell id="2dMqf0UhAoNqgRJj8EPE-144" value="Factory" style="shape=umlFrame;whiteSpace=wrap;html=1;pointerEvents=0;" vertex="1" parent="1">
          <mxGeometry x="570" y="960" width="630" height="370" as="geometry" />
        </mxCell>
        <mxCell id="2dMqf0UhAoNqgRJj8EPE-145" value="UIFactory" style="swimlane;fontStyle=1;align=center;verticalAlign=top;childLayout=stackLayout;horizontal=1;startSize=26;horizontalStack=0;resizeParent=1;resizeParentMax=0;resizeLast=0;collapsible=1;marginBottom=0;whiteSpace=wrap;html=1;" vertex="1" parent="1">
          <mxGeometry x="790" y="1100" width="160" height="86" as="geometry" />
        </mxCell>
        <mxCell id="2dMqf0UhAoNqgRJj8EPE-146" value="+ field: type" style="text;strokeColor=none;fillColor=none;align=left;verticalAlign=top;spacingLeft=4;spacingRight=4;overflow=hidden;rotatable=0;points=[[0,0.5],[1,0.5]];portConstraint=eastwest;whiteSpace=wrap;html=1;" vertex="1" parent="2dMqf0UhAoNqgRJj8EPE-145">
          <mxGeometry y="26" width="160" height="26" as="geometry" />
        </mxCell>
        <mxCell id="2dMqf0UhAoNqgRJj8EPE-147" value="" style="line;strokeWidth=1;fillColor=none;align=left;verticalAlign=middle;spacingTop=-1;spacingLeft=3;spacingRight=3;rotatable=0;labelPosition=right;points=[];portConstraint=eastwest;strokeColor=inherit;" vertex="1" parent="2dMqf0UhAoNqgRJj8EPE-145">
          <mxGeometry y="52" width="160" height="8" as="geometry" />
        </mxCell>
        <mxCell id="2dMqf0UhAoNqgRJj8EPE-148" value="+ method(type): type" style="text;strokeColor=none;fillColor=none;align=left;verticalAlign=top;spacingLeft=4;spacingRight=4;overflow=hidden;rotatable=0;points=[[0,0.5],[1,0.5]];portConstraint=eastwest;whiteSpace=wrap;html=1;" vertex="1" parent="2dMqf0UhAoNqgRJj8EPE-145">
          <mxGeometry y="60" width="160" height="26" as="geometry" />
        </mxCell>
        <mxCell id="2dMqf0UhAoNqgRJj8EPE-149" style="edgeStyle=orthogonalEdgeStyle;rounded=0;orthogonalLoop=1;jettySize=auto;html=1;entryX=0.616;entryY=0.995;entryDx=0;entryDy=0;entryPerimeter=0;" edge="1" parent="1" source="2dMqf0UhAoNqgRJj8EPE-145" target="2dMqf0UhAoNqgRJj8EPE-137">
          <mxGeometry relative="1" as="geometry">
            <mxPoint x="1260" y="710" as="targetPoint" />
            <Array as="points">
              <mxPoint x="870" y="930" />
              <mxPoint x="1260" y="930" />
            </Array>
          </mxGeometry>
        </mxCell>
        <mxCell id="2dMqf0UhAoNqgRJj8EPE-150" style="edgeStyle=orthogonalEdgeStyle;rounded=0;orthogonalLoop=1;jettySize=auto;html=1;exitX=1;exitY=0.5;exitDx=0;exitDy=0;" edge="1" parent="1" source="2dMqf0UhAoNqgRJj8EPE-146">
          <mxGeometry relative="1" as="geometry">
            <mxPoint x="950" y="1201.0285714285715" as="sourcePoint" />
            <mxPoint x="1260" y="328" as="targetPoint" />
            <Array as="points">
              <mxPoint x="1380" y="1139" />
              <mxPoint x="1380" y="450" />
              <mxPoint x="1260" y="450" />
            </Array>
          </mxGeometry>
        </mxCell>
        <mxCell id="2dMqf0UhAoNqgRJj8EPE-154" style="edgeStyle=orthogonalEdgeStyle;rounded=0;orthogonalLoop=1;jettySize=auto;html=1;entryX=0.527;entryY=1;entryDx=0;entryDy=0;entryPerimeter=0;" edge="1" parent="1" source="2dMqf0UhAoNqgRJj8EPE-145" target="2dMqf0UhAoNqgRJj8EPE-57">
          <mxGeometry relative="1" as="geometry">
            <Array as="points">
              <mxPoint x="870" y="1390" />
              <mxPoint x="1647" y="1390" />
            </Array>
          </mxGeometry>
        </mxCell>
        <mxCell id="2dMqf0UhAoNqgRJj8EPE-155" style="edgeStyle=orthogonalEdgeStyle;rounded=0;orthogonalLoop=1;jettySize=auto;html=1;entryX=0.5;entryY=0;entryDx=0;entryDy=0;" edge="1" parent="1" source="2dMqf0UhAoNqgRJj8EPE-74" target="2dMqf0UhAoNqgRJj8EPE-50">
          <mxGeometry relative="1" as="geometry">
            <Array as="points">
              <mxPoint x="2120" y="199" />
              <mxPoint x="2120" y="600" />
              <mxPoint x="1670" y="600" />
            </Array>
          </mxGeometry>
        </mxCell>
      </root>
    </mxGraphModel>
  </diagram>
</mxfile>
